<svg version="1.1" width="1490.5652587890627" height="1328.865124511719" viewBox="-664.4325622558595 -664.4325622558595 1490.5652587890627 1328.865124511719" xmlns="http://www.w3.org/2000/svg" id="svg_1">
<g id="g_1"><circle cx="-30" cy="0" r="20" fill="#000"></circle><circle cx="30" cy="0" r="20" fill="#000"></circle><g transform-origin="0 0" transform="rotate(-180) translate(152.95191955566406 27.367963790893555)"><circle cx="0" cy="0" r="5" fill="#000"></circle></g><ellipse stroke-width="2.106811152757291" fill="none" stroke="#000" cx="46.03675422547547" cy="0" rx="111.03675422547548" ry="101.04344634518269" transform="rotate(-180)"></ellipse><g transform-origin="0 0" transform="rotate(-110) translate(255.1641387939453 0)"><circle cx="0" cy="0" r="8" fill="#000"></circle><g transform="translate(15 9.18485099360515e-16) rotate(0)"><circle cx="0" cy="0" r="2" fill="#000"></circle></g><circle stroke-width="2.106811152757291" fill="none" stroke="#000" cx="0" cy="0" r="15"></circle></g><ellipse stroke-width="2.106811152757291" fill="none" stroke="#000" cx="31.545317357648038" cy="0" rx="223.618825808599" ry="221.382637550513" transform="rotate(-110)"></ellipse><g transform-origin="0 0" transform="rotate(-190) translate(416.0295715332031 0)"><circle cx="0" cy="0" r="6" fill="#000"></circle><g transform="translate(16 9.797174393178826e-16) rotate(0)"><circle cx="0" cy="0" r="5" fill="#000"></circle></g><circle stroke-width="2.106811152757291" fill="none" stroke="#000" cx="0" cy="0" r="16"></circle><g transform="translate(31 1.8982025386783976e-15) rotate(0)"><circle cx="0" cy="0" r="5" fill="#000"></circle></g><circle stroke-width="2.106811152757291" fill="none" stroke="#000" cx="0" cy="0" r="31"></circle></g><ellipse stroke-width="2.106811152757291" fill="none" stroke="#000" cx="51.43271636409928" cy="0" rx="364.5968595303463" ry="360.9508909350428" transform="rotate(-190)"></ellipse><g transform="translate(604.0295758944455 3.69861443354733e-14) rotate(0)"><circle cx="0" cy="0" r="15" fill="#000"></circle><g transform="translate(25 1.5308084989341915e-15) rotate(0)"><circle cx="0" cy="0" r="5" fill="#000"></circle></g><circle stroke-width="2.106811152757291" fill="none" stroke="#000" cx="0" cy="0" r="25"></circle><g transform="translate(40 2.4492935982947065e-15) rotate(0)"><circle cx="0" cy="0" r="5" fill="#000"></circle></g><circle stroke-width="2.106811152757291" fill="none" stroke="#000" cx="0" cy="0" r="40"></circle><g transform="translate(74 4.531193156845207e-15) rotate(0)"><circle cx="0" cy="0" r="5" fill="#000"></circle><g transform="translate(17 1.0409497792752501e-15) rotate(0)"><circle cx="0" cy="0" r="7" fill="#48cae4"></circle></g><circle stroke-width="2.106811152757291" fill="none" stroke="#48cae4" cx="0" cy="0" r="17"></circle></g><circle stroke-width="2.106811152757291" fill="none" stroke="#000" cx="0" cy="0" r="74"></circle><g transform="translate(125 7.654042494670958e-15) rotate(0)"><circle cx="0" cy="0" r="7" fill="#000"></circle><g transform="translate(17 1.0409497792752501e-15) rotate(0)"><circle cx="0" cy="0" r="5" fill="#000"></circle></g><circle stroke-width="2.106811152757291" fill="none" stroke="#000" cx="0" cy="0" r="17"></circle></g><circle stroke-width="2.106811152757291" fill="none" stroke="#000" cx="0" cy="0" r="125"></circle></g><circle stroke-width="2.106811152757291" fill="none" stroke="#000" cx="0" cy="0" r="604.0295758944455"></circle></g><defs></defs></svg>